# xmcd
#
# Track frame offsets:
#	187
#	23802
#	48562
#	74782
#	102827
#	115302
#	136947
#	166082
#	196152
#	215717
#	230705
#	246045
#	264897
#	287597
#	299040
#
# Disc length: 4240
#
# Revision: 3
# Processed by: cddbd v1.5.1PL0 Copyright (c) Steve Scherf et al.
# Submitted via: CDex 1.50
# Normalized: r2:TSWAP
#
DISCID=e7108e0f
DTITLE=Various Artist - Vintage Jazz
DYEAR=1995
DGENRE=Jazz
TTITLE0=Hubert Laws - My Time Will Come
TTITLE1=Eastern Rebellion - In The Kitchen
TTITLE2=Dave Brubeck - Jazzanians
TTITLE3=Vincent Herring - Secret Love
TTITLE4=Louie Bellson All Star Big Band - Skin Deep
TTITLE5=Joe Williams - The Blues
TTITLE6=Benny Carter - Wonderland
TTITLE7=Artie Shaw - Sunny Side Up
TTITLE8=Loren Schoenberg - I Only Have Eyes For You
TTITLE9=Eddy Davis and The Bunk Project - Margie
TTITLE10=Benny Goodman - Too Many Tears
TTITLE11=Dick Hyman - I Got Rythm
TTITLE12=Marvin Stamm - Mystery Man
TTITLE13=Marc Puricelli - Prelude
TTITLE14=Misha Segal - South of The Border
EXTD=YEAR: 1995
EXTT0=
EXTT1=
EXTT2=
EXTT3=
EXTT4=
EXTT5=
EXTT6=
EXTT7=
EXTT8=
EXTT9=
EXTT10=
EXTT11=
EXTT12=
EXTT13=
EXTT14=
PLAYORDER=
